<svg id="Layer_1" data-name="Layer 1" xmlns="http://www.w3.org/2000/svg" xmlns:xlink="http://www.w3.org/1999/xlink" viewBox="0 0 36 36.13">
  <defs>
    <linearGradient id="Violet_2" data-name="Violet 2" y1="18.01" x2="36" y2="18.01" gradientUnits="userSpaceOnUse">
      <stop offset="0.01" stop-color="#e2e5f4"/>
      <stop offset="0.45" stop-color="#c7cee9"/>
      <stop offset="1" stop-color="#a8b5dc"/>
    </linearGradient>
  </defs>
  <title>codepen</title>
  <path d="M36,12.52v11a1.47,1.47,0,0,1-.68,1.29l-16.45,11a1.56,1.56,0,0,1-1.73,0L.68,24.77A1.47,1.47,0,0,1,0,23.49v-11A1.47,1.47,0,0,1,.68,11.2L17.13.2a1.56,1.56,0,0,1,1.73,0l16.45,11A1.47,1.47,0,0,1,36,12.52ZM3.09,20.59,7,18,3.09,15.41Zm6.65-4.41,6.71-4.48V4.44L4.34,12.52Zm-5.4,7.35,12.11,8.08V24.35L9.74,19.87ZM18,21.66,23.46,18,18,14.35,12.54,18Zm8.26-5.48,5.4-3.62L19.55,4.44v7.21ZM19.55,31.56l12.11-8.08-5.4-3.62-6.71,4.48ZM29,18l3.88,2.59V15.41Z" transform="translate(0 0.06)" style="fill: url(#Violet_2)"/>
</svg>
