<svg id="Layer_1" data-name="Layer 1" xmlns="http://www.w3.org/2000/svg" xmlns:xlink="http://www.w3.org/1999/xlink" viewBox="0 0 30.86 30.1">
  <defs>
    <linearGradient id="linear-gradient" x1="7.7" y1="32.2" x2="23.15" y2="5.45" gradientUnits="userSpaceOnUse">
      <stop offset="0" stop-color="#fff"/>
      <stop offset="0.25" stop-color="#d6e1f1"/>
      <stop offset="0.59" stop-color="#a3bce0"/>
      <stop offset="0.86" stop-color="#84a6d6"/>
      <stop offset="1" stop-color="#789dd2"/>
    </linearGradient>
  </defs>
  <title>github</title>
  <g style="opacity: 0.8">
    <path d="M7.68,5.46a15.09,15.09,0,0,1,7.74-2.07,15.09,15.09,0,0,1,7.74,2.07,15.36,15.36,0,0,1,5.62,5.61,15.1,15.1,0,0,1,2.07,7.74,15,15,0,0,1-2.94,9.07,15.11,15.11,0,0,1-7.6,5.57.9.9,0,0,1-.8-.14.78.78,0,0,1-.26-.6s0-.55,0-1.54,0-1.88,0-2.7a3.58,3.58,0,0,0-1-2.85,13.73,13.73,0,0,0,2.06-.36,8.23,8.23,0,0,0,1.89-.78,5.62,5.62,0,0,0,1.63-1.34A6.22,6.22,0,0,0,24.86,21a10.13,10.13,0,0,0,.41-3,6,6,0,0,0-1.59-4.14,5.35,5.35,0,0,0-.16-4.1A2.63,2.63,0,0,0,21.9,10a10.85,10.85,0,0,0-1.85.88l-.76.48a14.5,14.5,0,0,0-7.71,0q-.32-.22-.85-.54A12.05,12.05,0,0,0,9,10.05a2.77,2.77,0,0,0-1.71-.27,5.34,5.34,0,0,0-.16,4.1A6,6,0,0,0,5.58,18,10,10,0,0,0,6,21a6.45,6.45,0,0,0,1.05,2.11,5.39,5.39,0,0,0,1.62,1.35,8.21,8.21,0,0,0,1.89.78,13.73,13.73,0,0,0,2.06.36,3.39,3.39,0,0,0-1,2.07,4,4,0,0,1-.9.3,5.69,5.69,0,0,1-1.14.1,2.37,2.37,0,0,1-1.32-.43,3.54,3.54,0,0,1-1.12-1.26,3.24,3.24,0,0,0-1-1,2.94,2.94,0,0,0-1-.48l-.4-.06a1.31,1.31,0,0,0-.58.09c-.11.06-.14.14-.1.23a1.08,1.08,0,0,0,.18.28,1.45,1.45,0,0,0,.26.24l.14.1a2.43,2.43,0,0,1,.87.76,5,5,0,0,1,.63,1l.2.46a2.54,2.54,0,0,0,.88,1.24,3.13,3.13,0,0,0,1.35.6A8.61,8.61,0,0,0,10,30a5.93,5.93,0,0,0,1.12-.07l.46-.08q0,.76,0,1.78t0,1.1a.79.79,0,0,1-.26.6.9.9,0,0,1-.8.14,15.11,15.11,0,0,1-7.6-5.57A15,15,0,0,1,0,18.82a15.09,15.09,0,0,1,2.07-7.74A15.35,15.35,0,0,1,7.68,5.46ZM5.85,25.55c0-.09,0-.17-.14-.24s-.22,0-.26,0,0,.17.14.24S5.79,25.66,5.85,25.55Zm.62.68q.14-.1,0-.32t-.32-.06c-.09.07-.08.17,0,.32S6.39,26.33,6.47,26.24Zm.6.9q.18-.14,0-.38c-.11-.17-.22-.21-.34-.12s-.12.19,0,.36S7,27.22,7.07,27.14Zm.84.84c.11-.11.08-.23-.08-.38s-.29-.18-.4-.06-.09.23.08.38S7.81,28.1,7.92,28Zm1.15.5q.06-.22-.26-.32c-.2-.05-.33,0-.38.14s0,.25.26.3S9,28.65,9.06,28.49Zm1.27.1q0-.26-.34-.22c-.21,0-.32.07-.32.22s.11.25.34.22S10.33,28.73,10.33,28.59Zm1.17-.2q0-.22-.36-.18t-.28.3c0,.16.15.21.36.16S11.52,28.52,11.49,28.39Z" transform="translate(0 -3.39)" style="fill: url(#linear-gradient)"/>
  </g>
</svg>
