<svg id="Layer_1" data-name="Layer 1" xmlns="http://www.w3.org/2000/svg" viewBox="0 0 210.63 210.63"><defs><style>.cls-1{fill:#13181b;}.cls-2{fill:#131617;}.cls-3{fill:#ecf2f6;}.cls-4,.cls-5{fill:none;stroke-miterlimit:10;}.cls-4{stroke:#ecf2f6;}.cls-5{stroke:#d8c5af;}</style></defs><title>lf-logo</title><circle class="cls-1" cx="103.79" cy="103.63" r="81.3"/><path class="cls-2" d="M104.88,36.9a65.19,65.19,0,1,1-65.07,65.26A65,65,0,0,1,104.88,36.9ZM55.6,100.85c-7.22,13.49-3.92,29.5,7.79,36.82,7.83,4.9,16.83,7.92,25.29,11.82,5.6,2.58,11.16,5.23,16.46,7.72,4.65-1.65,9.9-3.57,15.19-5.37,5.77-2,11.8-3.32,17.33-5.8,17.57-7.91,24.94-25.7,18.28-44a14.1,14.1,0,0,0-.82,2.38c-2.33,17.84-12.48,28.38-29.78,32.8-8.19,2.09-15.63,5.87-18.76,12.71-5.4-4-10.35-8.32-16-11.49-4.93-2.78-10.56-4.39-16-6.2-11.81-3.93-17.13-12.65-18.53-24.4C55.88,106,55.83,104.07,55.6,100.85ZM63,101l-2.25.4c-.36,3.85-1.5,7.83-.92,11.53,1.41,9.07,8.07,13.93,15.95,17.25,10.32,4.34,22.39,5.47,28.8,17.48,4.56-8.11,12-9.48,18.73-11.95,10.45-3.8,20.27-8.44,24-20.17,1.77-5.58,2.21-11.2-1.35-16.65-1.6,16.14-12.09,24.15-25.7,29.46-7,2.71-13,6.53-15.73,15.54-2.1-11-9.77-14.57-17.64-17.9C75.46,121.13,64.11,116.23,63,101ZM137,99.56c-3.74,9.51-11.79,13.79-20.35,17.31-6.7,2.76-11.25,7.05-11.54,12.73-3.32-3.38-6.83-8.43-11.61-11.48C85.38,113,75.77,110,71.24,98.79c-1.94,8.2-.86,13.9,4.64,18,3.64,2.71,7.72,4.84,11.61,7.22l18.17,11.08c1.63-1.56,4.17-4.72,7.38-6.88,4.4-3,9.31-5.16,14-7.7C135.61,115.83,139.44,108.33,137,99.56ZM126.09,86.89c-.8,9.18-5.05,14.33-11.12,18.59-4.1,2.88-7.52,6.73-10.79,9.73L80.05,92.41c0,8.21,2.14,15.09,10.55,19.48,5.46,2.85,10.08,7.32,15.05,11a60.87,60.87,0,0,1,5.89-6.83c2.67-2.41,5.9-4.17,8.8-6.34C128.31,103.85,130.65,96.27,126.09,86.89Zm-20.52,15.43L86,79.32c-2.13,7.92,1,12.73,5.3,17.12,4.69,4.82,9.41,9.62,13.95,14.25,3.58-4,7.83-8.6,11.8-13.38,5.44-6.55,6-11.7,2.94-17ZM90.91,66.68c-4.34,15,9.81,19.25,13.59,29.08,11.9-14.06,14.77-22.81,9.87-28.35l-9.63,19.66Zm13.18,4.12L94.85,53.18c-4,9.17-1,16.8,9.77,25.84,8.64-11,10.58-17.82,6.84-24.23-1.31,2.49-2.73,4.94-3.91,7.5C106.3,65,105.28,67.86,104.09,70.8Zm-1.17-16c-.94-2.66-1.78-4.73-2.4-6.87s-1-4.2-1.52-6.64c-5,6.52-2.7,15.45,5.07,20.75,3.64-5.41,7.65-10.61,4.22-19.41Z"/><path class="cls-3" d="M55.6,100.85c.22,3.22.28,5.11.5,7,1.4,11.75,6.72,20.47,18.53,24.4,5.43,1.8,11.05,3.42,16,6.2,5.63,3.17,10.58,7.53,16,11.49,3.12-6.84,10.56-10.61,18.76-12.71,17.3-4.42,27.45-15,29.78-32.8a14.1,14.1,0,0,1,.82-2.38c6.66,18.32-.71,36.11-18.28,44-5.53,2.49-11.56,3.84-17.33,5.8-5.29,1.8-10.53,3.72-15.19,5.37-5.3-2.49-10.87-5.14-16.46-7.72-8.46-3.9-17.46-6.92-25.29-11.82C51.68,130.35,48.38,114.33,55.6,100.85Z"/><path class="cls-3" d="M63,101c1.09,15.23,12.43,20.14,23.87,25,7.87,3.33,15.53,6.94,17.64,17.9,2.73-9,8.77-12.83,15.73-15.54C133.88,123,144.36,115,146,98.88c3.56,5.46,3.12,11.08,1.35,16.65-3.71,11.73-13.54,16.37-24,20.17-6.78,2.46-14.18,3.83-18.73,11.95-6.41-12-18.49-13.14-28.8-17.48-7.88-3.32-14.54-8.18-15.95-17.25-.58-3.71.56-7.68.92-11.53Z"/><path class="cls-3" d="M137,99.56c2.48,8.77-1.35,16.27-9.93,20.94-4.68,2.55-9.59,4.74-14,7.7-3.21,2.16-5.75,5.32-7.38,6.88L87.49,124c-3.89-2.38-8-4.51-11.61-7.22-5.5-4.09-6.58-9.79-4.64-18C75.77,110,85.38,113,93.46,118.13c4.78,3,8.28,8.09,11.61,11.48.3-5.68,4.85-10,11.54-12.73C125.18,113.34,133.22,109.07,137,99.56Z"/><path class="cls-3" d="M126.09,86.89c4.55,9.38,2.22,17-5.74,22.89-2.9,2.16-6.13,3.93-8.8,6.34a60.87,60.87,0,0,0-5.89,6.83c-5-3.72-9.59-8.19-15.05-11-8.4-4.39-10.5-11.27-10.55-19.48l24.14,22.79c3.27-3,6.69-6.85,10.79-9.73C121,101.22,125.29,96.07,126.09,86.89Z"/><path class="cls-3" d="M105.57,102.32l14.43-22c3.07,5.28,2.51,10.43-2.94,17-4,4.78-8.22,9.34-11.8,13.38-4.54-4.63-9.26-9.43-13.95-14.25C87,92,83.88,87.23,86,79.32Z"/><path class="cls-3" d="M90.91,66.68l13.83,20.39,9.63-19.66c4.9,5.54,2,14.29-9.87,28.35C100.71,85.93,86.56,81.65,90.91,66.68Z"/><path class="cls-3" d="M104.09,70.8c1.19-2.94,2.21-5.78,3.47-8.52,1.18-2.56,2.59-5,3.91-7.49,3.73,6.4,1.79,13.26-6.85,24.22-10.75-9-13.8-16.66-9.77-25.84Z"/><path class="cls-3" d="M102.92,54.77l5.37-12.17c3.44,8.8-.58,14-4.22,19.41C96.3,56.72,94,47.78,99,41.26c.55,2.44.92,4.57,1.52,6.64S102,52.12,102.92,54.77Z"/><circle class="cls-4" cx="104.37" cy="105.31" r="93.54"/><circle class="cls-5" cx="105.31" cy="105.31" r="104.81"/></svg>