<svg id="Layer_1" data-name="Layer 1" xmlns="http://www.w3.org/2000/svg" viewBox="0 0 30.86 29.49">
  <title>linkedin</title>
  <path d="M7.43,7.23a3.18,3.18,0,0,1-1,2.45,3.79,3.79,0,0,1-2.72,1h0A3.62,3.62,0,0,1,1,9.68,3.29,3.29,0,0,1,0,7.23,3.24,3.24,0,0,1,1,4.77a3.78,3.78,0,0,1,2.7-1,3.68,3.68,0,0,1,2.67,1A3.35,3.35,0,0,1,7.43,7.23ZM7,13.38V33.29H.38V13.38Zm23.85,8.5V33.29H24.25V22.64a5.81,5.81,0,0,0-.81-3.3,2.86,2.86,0,0,0-2.54-1.2,3.25,3.25,0,0,0-2.12.69,4.27,4.27,0,0,0-1.28,1.72,4.85,4.85,0,0,0-.22,1.63V33.29H10.67q0-8,0-13t0-5.95l0-1h6.61v2.89h0a8.77,8.77,0,0,1,.82-1.12,8.56,8.56,0,0,1,1.13-1,5.22,5.22,0,0,1,1.75-.87,8,8,0,0,1,2.3-.31,7.14,7.14,0,0,1,5.52,2.28Q30.86,17.48,30.86,21.88Z" transform="translate(0 -3.8)" style="fill: #1a1a1a"/>
</svg>
