<svg id="Layer_1" data-name="Layer 1" xmlns="http://www.w3.org/2000/svg" viewBox="0 0 43.96 69.26">
  <title>lp-preview</title>
  <path d="M.05,27a5.72,5.72,0,0,1,1.09-2.68A6.58,6.58,0,0,0,3,18.49a20.86,20.86,0,0,1,.55-8.43A37.31,37.31,0,0,1,5.26,6c-.06-.05-.48-.3-.45-.37a2.34,2.34,0,0,1,.61-.93C6.16,4.06,7,3.51,7.74,2.93c1-.74,1.9-1.89,3-2.15C14.8-.16,19,0,23.11,0a20.54,20.54,0,0,1,9.94,2.74c1.16.62,2.25,1.53,3.68.39.47-.37,1.11-.18,1.21.66a22.09,22.09,0,0,0,.48,3C38.54,7.3,39,8,39.33,8c2.12.3,2.92,2.05,3.7,3.54a9.82,9.82,0,0,1,.4,7.44,2.76,2.76,0,0,1-1.26,1.52c-.77.4-.83.8-.69,1.56.38,2.05.6,4.1-.6,6S38,31.35,35.59,31.2a11.21,11.21,0,0,0-2.34,0c-.52.08-1.3.31-1.46.68a22.51,22.51,0,0,0-1.46,4.43,7.72,7.72,0,0,0,.17,3.06,41.3,41.3,0,0,0,1.67,6.26c.64,1.63,1.94,3,2.15,4.85a2.31,2.31,0,0,0,.77,1.37,3.28,3.28,0,0,1,1,2.65c0,1,0,2.06,0,3.08a3.67,3.67,0,0,1-.38,1.9,8.62,8.62,0,0,1-3,1.88,6.38,6.38,0,0,0,2.33-7.91,55.59,55.59,0,0,0-3.84-7.08c0-.07-.12-.13-.14-.2A27.15,27.15,0,0,1,29.91,42a28.6,28.6,0,0,1-.25-6,12.3,12.3,0,0,1,1.25-4.19c.5-1,1.58-1.34,2.83-1.3a11,11,0,0,0,3.7-.48c3-1,4.15-4.87,3.25-7.64-.64-2-.25-2.57,2-3.05a39.14,39.14,0,0,0,.52-4,6.19,6.19,0,0,0-3.59-6c-2-.89-1.66-2.49-2.33-3.8a3.38,3.38,0,0,0-.87-1C35,5.45,34,4.3,33,3.78,29.43,1.85,25.7.49,21.55.64c-2.58.1-5.17.15-7.73.42A9.1,9.1,0,0,0,7.71,4.12a18,18,0,0,0-3.46,6.71,23.16,23.16,0,0,0-.5,9,4.08,4.08,0,0,1-.83,3.44A13.74,13.74,0,0,0,1,26.68a1.19,1.19,0,0,0,.26,1c.18.23.57.29.88.41,1.49.6,1.79,1.21,1.38,2.84,0,.11-.11.25-.07.34.38,1,.54,2.2,1.24,2.79a4.8,4.8,0,0,1,1.52,3.22,1.82,1.82,0,0,0,2.06,1.65,12.85,12.85,0,0,0,3.27-.45c4.71-1.35,5.17-.15,5.86,4a11.54,11.54,0,0,1,0,3.19,4.93,4.93,0,0,1-1.8,3.6c-.88.69-1.31,1.93-2,2.85S12,53.76,11.31,54.64C10,56.21,9,57.95,7.54,59.37a14.64,14.64,0,0,0-2.79,4.31,4.55,4.55,0,0,0,1.88,5.58c-1,0-1.79-.22-2-.63-1.06-2-1.45-4.06-.22-6.15.63-1.07,1.22-2.16,1.92-3.18a31.92,31.92,0,0,1,2.12-2.65c1.08-1.26,2.24-2.47,3.3-3.75s2.17-2.73,3.18-4.15a7.19,7.19,0,0,0,1.55-2.63c.39-2.33.77-4.72-1.34-6.69-.46-.43-.59-.71-1.26-.6a47.78,47.78,0,0,1-5.63.73c-1.93.08-2.82-.91-3.11-2.89a2.87,2.87,0,0,0-.64-1.43,7.7,7.7,0,0,1-1.71-4.67c-.09-1-.46-1.73-1.54-1.89A1.25,1.25,0,0,1,.05,27Z" style="fill: #fff"/>
</svg>
