<svg id="Layer_1" data-name="Layer 1" xmlns="http://www.w3.org/2000/svg" viewBox="0 0 263.1 688.19">
  <title>river-01</title>
  <g id="one">
    <path d="M48.74,0a107.34,107.34,0,0,1,.41,11.64,43.14,43.14,0,0,1-.49,5.81A15.29,15.29,0,0,1,48,20.29a6.12,6.12,0,0,1-.68,1.32,2.41,2.41,0,0,1-1.18,1l-.4.09h-.36a5.48,5.48,0,0,1-.73,0,8.45,8.45,0,0,1-1.47-.24,15.55,15.55,0,0,1-2.76-1A56.21,56.21,0,0,0,35.14,19a3.35,3.35,0,0,0-2.66.07,3.09,3.09,0,0,0-1.28,2.3,34.49,34.49,0,0,0-.2,5.79,24.25,24.25,0,0,1-.1,2.94A6,6,0,0,1,30,33a4.37,4.37,0,0,1-.51.57,4.93,4.93,0,0,1-.54.5q-.57.5-1.16.93c-.78.59-1.58,1.15-2.38,1.69-3.23,2.17-6.55,4.18-9.85,6.22-1.65,1-3.3,2-4.92,3.1-.82.53-1.57,1.08-2.38,1.66s-1.64,1.07-2.45,1.59a17.62,17.62,0,0,0-4.43,3.56,3.19,3.19,0,0,0-.75,2.47A4.47,4.47,0,0,0,2,57.58c2.8,2.56,6.42,4.15,9.88,5.86a47.11,47.11,0,0,1,10,6A27.21,27.21,0,0,1,26,73.73a32.16,32.16,0,0,1,3,5.05c1.68,3.52,3.18,7.1,4.66,10.69,3,7.18,5.76,14.42,8.47,21.7s5.32,14.59,7.67,22C51,136.88,52.1,140.6,53,144.4c.21,1,.41,1.91.54,2.9a9.8,9.8,0,0,1,.1,1.52c0,.51-.06,1-.08,1.47-.14,1.93-.25,3.88-.57,5.83a16.3,16.3,0,0,1-2,5.59,29.12,29.12,0,0,1-3.51,4.72c-2.58,2.92-5.4,5.63-7.17,9A10.36,10.36,0,0,0,39,180.86a11.19,11.19,0,0,0,2,5.25c2,3.27,4.33,6.41,6.59,9.56,4.54,6.29,9.18,12.51,13.63,18.88,2.21,3.19,4.42,6.39,6.38,9.76a27.09,27.09,0,0,1,2.4,5.3,23.79,23.79,0,0,1,1,5.78,25.67,25.67,0,0,1-2,11.46,25.24,25.24,0,0,1-2.91,5.08,35.93,35.93,0,0,1-3.9,4.35c-1.37,1.38-2.78,2.71-4,4.18a10.61,10.61,0,0,0-2.62,5,12.13,12.13,0,0,0,.49,5.65l.45,1.37.55,1.34,1.14,2.68A109.53,109.53,0,0,1,64.37,299h0a84,84,0,0,0,5.07,11c.49.88,1,1.75,1.53,2.62a27.45,27.45,0,0,1,1.4,2.72c.83,1.86,1.55,3.76,2.24,5.67,1.37,3.82,2.56,7.7,3.91,11.52.34,1,.69,1.9,1.09,2.82a12.55,12.55,0,0,0,.66,1.33,2.86,2.86,0,0,0,.42.55l.58.45a18.92,18.92,0,0,1,2,2.41c.6.82,1.17,1.66,1.73,2.52a110.91,110.91,0,0,1,6.1,10.49c.46.91.89,1.83,1.27,2.79a10.48,10.48,0,0,1,.49,1.48,7.24,7.24,0,0,1,.1,1.57q0,3,.2,6.07a118.81,118.81,0,0,0,1.26,12.07,69.6,69.6,0,0,0,2.84,11.76,26.33,26.33,0,0,0,6,10.3,51.93,51.93,0,0,1,7.19,9.87,165.63,165.63,0,0,1,10.2,22.13l2.26,5.64a35.9,35.9,0,0,0,2.66,5.38,32.61,32.61,0,0,0,3.61,4.78c.68.74,1.38,1.46,2.09,2.19a19.26,19.26,0,0,1,2.07,2.33,17.45,17.45,0,0,1,2.37,5.76,10.86,10.86,0,0,1,.21,3.16,7.56,7.56,0,0,1-.31,1.58,10.2,10.2,0,0,1-.63,1.46,30,30,0,0,0-1.74,5.71c-.44,2-.78,4-1.06,6a66.31,66.31,0,0,0-.63,12,30.84,30.84,0,0,0,2.5,11.63,107.93,107.93,0,0,1,4.65,11.3c1.36,3.83,2.59,7.7,3.75,11.6q.87,2.92,1.67,5.86c.51,2,1.07,3.89,1.68,5.83,1.21,3.86,2.53,7.69,4,11.44a68.61,68.61,0,0,0,5.29,10.84,17.33,17.33,0,0,0,3.8,4.48,34.05,34.05,0,0,1,4.57,4.14,50.46,50.46,0,0,1,7.12,10,22.91,22.91,0,0,1,1.36,2.77,13.54,13.54,0,0,1,.56,1.48c.16.56.23,1,.37,1.49a46.54,46.54,0,0,0,1.92,5.69,28.86,28.86,0,0,0,2.77,5.29,8.63,8.63,0,0,0,4.28,3.62,18.36,18.36,0,0,0,2.91.53,12.55,12.55,0,0,0,2.91-.1,7.57,7.57,0,0,0,4.82-2.81c1.26-1.48,1.67-3.43,2.39-5.38a60.12,60.12,0,0,1,2.36-5.66,30,30,0,0,1,3.15-5.31,6.25,6.25,0,0,1,2.49-2.1,2,2,0,0,1,1.85.22,3.76,3.76,0,0,1,1.07,1.32,38.78,38.78,0,0,1,2.44,5.65c.7,1.91,1.32,3.85,1.93,5.79q1.81,5.82,3.36,11.71v.17c-.41,2.6-.71,5.23-.87,7.86a42.28,42.28,0,0,0,.12,7.87,11.25,11.25,0,0,0,1,3.69,3.62,3.62,0,0,0,1.2,1.35c.54.37,1.07.79,1.6,1.22a38.61,38.61,0,0,1,5.53,5.79,27.23,27.23,0,0,1,4.06,6.92,11.8,11.8,0,0,1,.75,4c0,1.32,0,2.66-.08,4-.13,5.3-.28,10.6.08,15.87a35.58,35.58,0,0,0,.49,3.91c.07.32.12.64.2,1l.28.93c.11.3.26.57.39.86s.32.58.48.88c1.23,2.44,1.68,5.09,2.66,7.52a6.65,6.65,0,0,0,.93,1.67,2.17,2.17,0,0,0,1.51.91,17,17,0,0,0,3.88-.38,29.76,29.76,0,0,1,7.94-.76,17.37,17.37,0,0,0,3.91.39,8.44,8.44,0,0,0,3.64-1.31c.56-.34,1.1-.72,1.65-1.09.28-.19.55-.37.85-.54l.22-.12.13-.07h.12l.24-.07h.3a1.25,1.25,0,0,1,.52.2,2.29,2.29,0,0,1,.37.37,3.53,3.53,0,0,1,.49.9,6.73,6.73,0,0,1,.39,2,9.16,9.16,0,0,1-.63,3.94,20.52,20.52,0,0,1-2,3.43c-1.49,2.19-3.06,4.33-4.69,6.43l-.08-.06c1.61-2.11,3.16-4.26,4.63-6.46a20.4,20.4,0,0,0,2-3.41,9,9,0,0,0,.59-3.85,6.51,6.51,0,0,0-.39-1.9,3.3,3.3,0,0,0-.46-.83,2.06,2.06,0,0,0-.33-.32c-.13,0-.26-.17-.4-.16h-.2l-.24.07h-.21l-.21.12-.83.53c-.54.38-1.08.77-1.65,1.12a8.74,8.74,0,0,1-3.76,1.38,17.51,17.51,0,0,1-4-.36,29.46,29.46,0,0,0-7.83.81,17.2,17.2,0,0,1-4,.41,2.61,2.61,0,0,1-1.81-1.06,7.08,7.08,0,0,1-1-1.78c-1-2.49-1.48-5.14-2.66-7.45-.16-.29-.34-.58-.48-.86a8.11,8.11,0,0,1-.43-.94l-.3-1c-.09-.33-.14-.66-.21-1a36.07,36.07,0,0,1-.51-4c-.39-5.31-.25-10.63-.15-15.92,0-1.33.06-2.64.06-4a11.17,11.17,0,0,0-.73-3.77,26.62,26.62,0,0,0-4-6.73,38,38,0,0,0-5.45-5.67,17.38,17.38,0,0,0-1.57-1.18,4.36,4.36,0,0,1-1.42-1.58,11.9,11.9,0,0,1-1.12-3.93,43,43,0,0,1-.16-8c.16-2.66.44-5.3.85-7.94v.17q-1.58-5.86-3.4-11.66c-.62-1.93-1.24-3.85-1.94-5.75a38.09,38.09,0,0,0-2.39-5.5,4.33,4.33,0,0,0-.38-.6,1.85,1.85,0,0,0-.44-.43,1.08,1.08,0,0,0-1-.11,5.51,5.51,0,0,0-2.07,1.81,29.14,29.14,0,0,0-3,5.15,59.18,59.18,0,0,0-2.3,5.57c-.67,1.83-1.11,4-2.52,5.67a8.52,8.52,0,0,1-5.43,3.18,13.54,13.54,0,0,1-3.16.11,19.48,19.48,0,0,1-3.07-.55,7,7,0,0,1-2.81-1.63,13.87,13.87,0,0,1-2.05-2.39A29.81,29.81,0,0,1,173.9,586a47.46,47.46,0,0,1-2-5.83c-.14-.49-.23-1-.36-1.46a12.69,12.69,0,0,0-.52-1.36c-.39-.91-.84-1.81-1.32-2.69a49.5,49.5,0,0,0-7-9.79,33,33,0,0,0-4.43-4,18.19,18.19,0,0,1-4-4.74,69.49,69.49,0,0,1-5.36-11c-1.51-3.78-2.84-7.63-4.05-11.51-.61-1.93-1.18-3.91-1.68-5.86s-1.08-3.9-1.66-5.84c-1.15-3.88-2.37-7.74-3.73-11.55a106.94,106.94,0,0,0-4.6-11.2,31.7,31.7,0,0,1-2.59-12,67.22,67.22,0,0,1,.64-12.22c.28-2,.62-4,1.07-6a30.73,30.73,0,0,1,1.81-5.9,7.81,7.81,0,0,0,.66-5.62,16.61,16.61,0,0,0-2.22-5.43,18.62,18.62,0,0,0-2-2.21c-.71-.72-1.42-1.46-2.11-2.21a32.57,32.57,0,0,1-3.7-4.92,36.81,36.81,0,0,1-2.71-5.52l-2.24-5.66a164.91,164.91,0,0,0-10.07-22.06,51.13,51.13,0,0,0-7.06-9.78,27,27,0,0,1-6-10.68,70.21,70.21,0,0,1-2.82-11.88A119.38,119.38,0,0,1,92.62,365c-.11-2-.17-4.06-.18-6.09a6.75,6.75,0,0,0-.09-1.46,10.07,10.07,0,0,0-.46-1.4c-.37-.93-.8-1.84-1.25-2.75a110.44,110.44,0,0,0-6.08-10.5A36.81,36.81,0,0,0,81,338l-.3-.23-.13-.1-.2-.14a3.24,3.24,0,0,1-.5-.66,13,13,0,0,1-.69-1.39c-.4-.94-.75-1.9-1.09-2.86-1.34-3.84-2.52-7.72-3.87-11.53-.68-1.91-1.39-3.8-2.21-5.65a27,27,0,0,0-1.37-2.69c-.52-.86-1-1.75-1.53-2.63A84.34,84.34,0,0,1,64,299.06h0a105.44,105.44,0,0,0-6.08-22.38L56.8,274l-.56-1.35-.46-1.39a12.47,12.47,0,0,1-.52-5.82,9.63,9.63,0,0,1,1-2.78,16.16,16.16,0,0,1,1.69-2.41c1.26-1.5,2.67-2.84,4-4.21a35.52,35.52,0,0,0,3.84-4.32,24.81,24.81,0,0,0,2.84-5,25.2,25.2,0,0,0,2-11.26,23.35,23.35,0,0,0-1-5.64,26.49,26.49,0,0,0-2.45-5.21c-2-3.33-4.17-6.52-6.39-9.69C56.27,208.53,51.6,202.33,47,196c-2.27-3.15-4.57-6.28-6.65-9.58a11.88,11.88,0,0,1-2-5.56,11.07,11.07,0,0,1,1.33-5.79c1.83-3.55,4.71-6.3,7.23-9.19a28.36,28.36,0,0,0,3.41-4.62A15.5,15.5,0,0,0,52.16,156a57.39,57.39,0,0,0,.54-5.75c0-.48.08-1,.08-1.44a9.07,9.07,0,0,0-.1-1.38c-.13-.94-.32-1.88-.53-2.82-.88-3.75-2-7.46-3.2-11.15-2.39-7.37-5-14.69-7.64-22S35.86,97,32.93,89.77c-1.47-3.58-3-7.17-4.61-10.66a31.42,31.42,0,0,0-2.92-4.94,26.5,26.5,0,0,0-4-4.14,46.47,46.47,0,0,0-9.85-6c-3.45-1.73-7.08-3.31-10-6A5.06,5.06,0,0,1,0,55.38a3.8,3.8,0,0,1,.88-2.94,18.08,18.08,0,0,1,4.6-3.69c.82-.52,1.65-1,2.43-1.57S9.5,46,10.31,45.52c1.63-1.06,3.29-2.07,4.94-3.09,3.31-2,6.63-4,9.85-6.18.8-.54,1.6-1.09,2.37-1.67.39-.29.76-.58,1.11-.89a6.91,6.91,0,0,0,1-1,5.6,5.6,0,0,0,.83-2.62,23.81,23.81,0,0,0,.1-2.88,33.87,33.87,0,0,1,.17-5.85,5.45,5.45,0,0,1,.45-1.44,2.54,2.54,0,0,1,1.05-1.14,3.74,3.74,0,0,1,3-.08,55.84,55.84,0,0,1,5.3,2.44,15.24,15.24,0,0,0,2.7,1,8.23,8.23,0,0,0,1.4.24,5.3,5.3,0,0,0,.72,0h.36l.31-.08a3.35,3.35,0,0,0,1.7-2.09,15.05,15.05,0,0,0,.72-2.79A42.93,42.93,0,0,0,49,11.63,107.2,107.2,0,0,0,48.65,0Z" transform="translate(0.03)" style="fill: #6cc0dd"/>
  </g>
  <g id="two">
    <path d="M114.7,419a71.56,71.56,0,0,1,2-7.21,38.1,38.1,0,0,1,3-6.87,12.59,12.59,0,0,1,2.29-3,5.31,5.31,0,0,1,1.6-1c.6-.22,1.18-.41,1.79-.58,2.41-.71,4.91-1,7.32-1.57a8,8,0,0,0,1.72-.6,1.77,1.77,0,0,0,1.07-1.23,3,3,0,0,1,1-1.71,3.88,3.88,0,0,1,1.81-.78,11.4,11.4,0,0,1,1.9-.17h.94a3,3,0,0,0,.85-.16,15.71,15.71,0,0,0,3.22-1.72c2.08-1.35,4.08-2.84,6.12-4.29,1-.72,2-1.44,3.1-2.12.52-.33,1.07-.69,1.62-1a5.55,5.55,0,0,1,1.9-.55,7,7,0,0,1,3.77.84c1.15.56,2.18,1.31,3.25,1.84.53.25,1.11.43,1.48.18a5.28,5.28,0,0,0,1.09-1.33c.67-1,1.27-2.12,1.88-3.21,1.21-2.18,2.37-4.39,3.63-6.56.63-1.08,1.28-2.16,2-3.2a12.3,12.3,0,0,1,1.21-1.5,3.84,3.84,0,0,1,.8-.65,1.45,1.45,0,0,1,.6-.19l.43-.07a6.43,6.43,0,0,0,1.56-.72,17.39,17.39,0,0,0,1.52-1A32.38,32.38,0,0,0,184,366.5a31.21,31.21,0,0,0,2.57-2.66,9.77,9.77,0,0,0,1.05-1.45,2,2,0,0,0,.16-.36v-.09l.05-.14.08-.22c.11-.29.29-.6.44-.9,1.26-2.2,2.69-4.24,4.11-6.31s2.88-4.08,4.36-6.1l-.08.22a70.46,70.46,0,0,0,0-11.19,26.38,26.38,0,0,0-1-5.44l-.4-1.37c-.1-.48-.23-1-.31-1.43a25.55,25.55,0,0,1-.35-2.85,36.94,36.94,0,0,1,.07-5.71c.08-1,.19-1.89.35-2.84s.45-1.85.69-2.78c.49-1.82,1-3.64,1.59-5.44.29-.9.62-1.8,1-2.69a6.31,6.31,0,0,1,.74-1.34l.21-.27a2.75,2.75,0,0,0,.2-.27,4.72,4.72,0,0,0,.23-.52,21.24,21.24,0,0,0,.82-5.42c0-.93.08-1.87.09-2.8a11,11,0,0,1,.22-2.91c.53-1.88,1.27-3.57,1.69-5.38a14.42,14.42,0,0,0,.38-5.44c-.13-.89-.39-1.8-.5-2.77a9,9,0,0,1,.12-2.94,17.71,17.71,0,0,1,2.33-5.25,26.5,26.5,0,0,0,1.27-2.47,12.93,12.93,0,0,0,.49-1.28,14.23,14.23,0,0,1,.55-1.33,22.86,22.86,0,0,1,3.61-4.49c2.64-2.71,5.45-5.21,8-7.93a33,33,0,0,0,3.57-4.29,11.69,11.69,0,0,0,1.27-2.42l.53-1.32a14.39,14.39,0,0,1,.67-1.29,47.48,47.48,0,0,1,7.37-8.62c1.33-1.33,2.69-2.63,4-4a27.61,27.61,0,0,0,1.82-2.11,6.23,6.23,0,0,0,.68-1.15c.21-.4.28-.87.5-1.31a21.56,21.56,0,0,1,3-4.84,22.39,22.39,0,0,1,4-4c.77-.59,1.68-.94,2.45-1.43a21.79,21.79,0,0,0,2.28-1.61,19,19,0,0,0,3.84-4,11,11,0,0,0,1.3-2.46,9.06,9.06,0,0,1,1-2.63,4.62,4.62,0,0,1,2.41-1.49,8.93,8.93,0,0,0,2.59-1,2.07,2.07,0,0,0,.73-1.12,5.47,5.47,0,0,0,.1-1.38c0-.94-.08-1.88-.16-2.81-.17-1.87-.44-3.74-.78-5.59.36,1.85.65,3.71.85,5.58.1.94.17,1.88.2,2.82a5.58,5.58,0,0,1-.09,1.42,2.21,2.21,0,0,1-.76,1.21,9,9,0,0,1-2.63,1.05,4.42,4.42,0,0,0-2.29,1.45,9,9,0,0,0-1,2.59,11.24,11.24,0,0,1-1.3,2.53,19.33,19.33,0,0,1-3.85,4.16,22.17,22.17,0,0,1-2.3,1.67c-.82.53-1.68.87-2.4,1.44a22.66,22.66,0,0,0-3.91,4,21.12,21.12,0,0,0-2.92,4.72c-.2.4-.28.88-.5,1.32a6.7,6.7,0,0,1-.74,1.28,28.07,28.07,0,0,1-1.86,2.17c-1.3,1.38-2.65,2.69-4,4a47.09,47.09,0,0,0-7.23,8.52c-.2.41-.45.77-.62,1.21l-.51,1.3A12.31,12.31,0,0,1,223,250a33.59,33.59,0,0,1-3.62,4.4c-2.59,2.75-5.4,5.27-8,8a23,23,0,0,0-3.44,4.28,13.1,13.1,0,0,0-.52,1.27,13.69,13.69,0,0,1-.51,1.35,27.25,27.25,0,0,1-1.3,2.55,17,17,0,0,0-2.22,5,8.21,8.21,0,0,0-.1,2.67c.1.9.37,1.81.51,2.77a15.26,15.26,0,0,1-.37,5.75c-.43,1.87-1.19,3.64-1.67,5.39a10.24,10.24,0,0,0-.18,2.7c0,.94,0,1.89-.08,2.84a21.87,21.87,0,0,1-.85,5.7,4.39,4.39,0,0,1-.35.76,3.35,3.35,0,0,1-.21.29l-.14.17-.08.11a5.63,5.63,0,0,0-.61,1.13c-.36.84-.67,1.71-1,2.6-.58,1.77-1.07,3.58-1.55,5.39-.23.89-.48,1.85-.66,2.7a26.32,26.32,0,0,0-.35,2.76,36,36,0,0,0-.09,5.56,24.6,24.6,0,0,0,.32,2.75c.07.45.19.89.28,1.33l.39,1.34a27.24,27.24,0,0,1,1,5.65,71.29,71.29,0,0,1-.07,11.35v.12l-.07.1q-2.22,3-4.38,6.06c-1.42,2-2.86,4.09-4.09,6.22a7.09,7.09,0,0,0-.39.78l-.17.42a2.77,2.77,0,0,1-.22.49,10.42,10.42,0,0,1-1.15,1.57,31.94,31.94,0,0,1-2.64,2.71,33.13,33.13,0,0,1-2.91,2.42,18.11,18.11,0,0,1-1.51,1,6.74,6.74,0,0,1-1.84.8l-.49.07a.78.78,0,0,0-.28.1,3.19,3.19,0,0,0-.64.53,11.64,11.64,0,0,0-1.14,1.41c-.71,1-1.36,2.07-2,3.13-1.26,2.14-2.43,4.34-3.65,6.53-.61,1.09-1.22,2.18-1.92,3.24-.17.27-.35.53-.55.79a4.37,4.37,0,0,1-.33.39,1.78,1.78,0,0,1-.41.34,1.58,1.58,0,0,1-1.12.18,3.89,3.89,0,0,1-1-.34c-1.16-.59-2.15-1.32-3.25-1.86A6.42,6.42,0,0,0,158,385a5,5,0,0,0-1.68.48c-.56.28-1,.62-1.59,1-1,.67-2.07,1.38-3.09,2.09-2,1.43-4.05,2.91-6.16,4.27a15.83,15.83,0,0,1-3.38,1.77,3.39,3.39,0,0,1-1,.18h-.93a11.8,11.8,0,0,0-1.82.14,3.42,3.42,0,0,0-1.6.65,2.19,2.19,0,0,0-.54.65,3,3,0,0,0-.3.82l-.18.48c-.09.15-.21.29-.31.43a3.25,3.25,0,0,1-.82.57,8.33,8.33,0,0,1-1.81.61c-2.46.55-4.94.81-7.33,1.48-.59.16-1.2.35-1.77.55a5.06,5.06,0,0,0-1.53,1,12.39,12.39,0,0,0-2.29,2.9,38,38,0,0,0-3.06,6.8A71.51,71.51,0,0,0,114.7,419Z" transform="translate(0.03)" style="fill: #6cc0dd"/>
  </g>
</svg>
